<svg width="1296" height="1296" xmlns="http://www.w3.org/2000/svg" xmlns:xlink="http://www.w3.org/1999/xlink" xml:space="preserve" overflow="hidden"><defs><clipPath id="clip0"><rect x="2913" y="426" width="1296" height="1296"/></clipPath></defs><g clip-path="url(#clip0)" transform="translate(-2913 -426)"><path d="M3560.9 426C3780.38 425.992 3999.79 426.186 4004.73 426.574 4018.69 427.737 4034.06 430.515 4046.6 434.133 4055 436.524 4063.27 439.173 4065.34 440.078 4066.05 440.401 4068.96 441.628 4071.8 442.727 4108.89 457.652 4144.23 486.018 4168.21 520.263 4187.4 547.594 4200.06 577.833 4205.55 609.3 4208.98 629.2 4208.72 592.048 4208.91 1063.66 4209.11 1369.22 4208.98 1500.32 4208.46 1506.91 4205.23 1550.78 4190.31 1590.97 4164.01 1626.44 4160.97 1630.51 4157.35 1635.23 4155.87 1636.84 4154.38 1638.46 4152.31 1640.91 4151.21 1642.34 4146.88 1647.63 4132.41 1661.53 4123.75 1668.63 4115.22 1675.61 4102.3 1684.79 4095.06 1688.86 4093.32 1689.89 4090.99 1691.25 4089.89 1691.89 4087.5 1693.25 4067.08 1703.33 4066.7 1703.33 4066.5 1703.33 4064.82 1704.04 4062.95 1704.88 4052.74 1709.53 4028.83 1716.51 4015.33 1718.84 3994.33 1722.33 4024.11 1722.13 3556.49 1721.87 3089.84 1721.68 3125.12 1721.94 3105.8 1718.58 3087.32 1715.35 3061.79 1706.76 3043.44 1697.52 3010.62 1681.1 2981.35 1657.13 2960.73 1629.74 2959.83 1628.57 2958.54 1626.83 2957.76 1625.92 2944.97 1609.25 2932.04 1584.25 2924.61 1561.76 2919.51 1546.06 2916.99 1534.95 2914.08 1514.66 2913.05 1507.36 2912.53 650.717 2913.56 635.403 2915.11 612.143 2920.35 587.848 2928.17 567.883 2935.99 548.047 2949.17 525.367 2962.61 508.632 2972.69 496.162 2992.27 477.166 3002.02 470.51 3003.31 469.67 3004.67 468.701 3005 468.443 3008.16 465.858 3014.69 461.465 3015.4 461.465 3015.85 461.465 3016.3 461.206 3016.43 460.948 3016.69 460.237 3025.16 455.003 3026 455.003 3026.32 455.003 3026.64 454.745 3026.64 454.486 3026.64 453.711 3045.96 444.536 3055.27 440.853 3074.13 433.423 3096.94 428.124 3116.59 426.638 3121.85 426.218 3341.42 426.008 3560.9 426ZM3568.9 681.796 3568.64 685.802C3568.44 688.063 3568.38 702.214 3568.38 717.333L3568.44 744.794 3588.67 744.987 3608.83 745.117 3608.7 713.65 3608.51 682.119 3588.67 681.925 3568.9 681.796ZM3723.52 693.426C3723.33 693.426 3723.2 703.312 3723.2 715.459 3723.2 734.973 3723.07 737.428 3722.23 737.105 3720.87 736.588 3704.65 740.852 3700.26 742.855 3698.32 743.76 3695.03 745.246 3693.02 746.15 3681.33 751.513 3666.21 763.79 3656.39 775.937 3652.19 781.171 3645.4 792.22 3642.11 799.069 3637.32 809.148 3633.83 822.976 3632.74 836.092 3632.48 839.517 3632.28 868.205 3632.35 899.865L3632.41 957.371 3634.03 957.242C3634.93 957.113 3642.04 956.66 3649.86 956.079 3657.68 955.562 3665.88 954.916 3668.08 954.722L3672.09 954.334 3672.35 894.438C3672.54 835.705 3672.54 834.542 3673.9 829.437 3677.06 817.548 3680.42 810.505 3686.82 802.106 3692.7 794.417 3700.97 787.632 3709.95 783.109 3713.25 781.429 3721.32 778.716 3722.94 778.716 3723.72 778.716 3723.84 782.205 3723.84 799.715 3723.84 811.281 3723.97 820.714 3724.1 820.714 3724.23 820.714 3728.69 818 3733.92 814.64 3739.22 811.281 3745.88 807.081 3748.72 805.272 3770.17 791.897 3822.84 758.039 3824.19 756.812 3824.45 756.553 3822.38 754.873 3819.67 753.064 3811.01 747.507 3792.53 735.877 3787.62 732.905 3785.1 731.354 3781.03 728.834 3778.64 727.284 3776.25 725.733 3774.12 724.44 3773.86 724.44 3773.66 724.44 3772.31 723.6 3770.82 722.567 3769.33 721.533 3764.75 718.69 3760.68 716.235 3756.6 713.715 3750.27 709.773 3746.65 707.382 3743.04 705.056 3739.93 703.118 3739.74 703.118 3739.61 703.118 3737.16 701.503 3734.31 699.564 3729.53 696.334 3724.43 693.426 3723.52 693.426ZM3504.15 740.594 3504.15 770.962 3504.15 801.33 3524.18 801.33 3544.21 801.33 3544.08 771.091 3543.89 740.917 3524.05 740.723 3504.15 740.594ZM3588.8 773.546C3577.81 773.546 3568.7 773.805 3568.51 774.128 3568.25 774.516 3568.44 903.807 3568.7 917.763L3568.77 920.865 3588.8 920.865 3608.76 920.865 3608.76 847.205 3608.7 773.546 3588.8 773.546ZM3329.69 754.809 3329.69 775.097 3329.69 795.451 3361.87 795.644 3393.98 795.903 3399.22 797.583C3420.22 804.367 3435.08 821.166 3439.66 843.652 3440.12 845.655 3440.5 867.43 3440.76 900.511L3441.15 954.076 3456.72 955.497C3465.32 956.273 3474.04 957.048 3476.11 957.113L3479.92 957.371 3479.92 900.188C3479.92 848.304 3479.79 842.489 3478.76 837.061 3475.46 819.939 3469 804.69 3459.95 792.995 3452.14 782.851 3444.19 775.743 3432.75 768.701 3426.1 764.501 3414.66 759.784 3406.32 757.716 3396.05 755.197 3390.23 754.809 3359.61 754.809L3329.69 754.809ZM3504.15 831.052 3504.15 894.373C3504.15 944.513 3504.35 957.759 3504.99 958.017 3506.02 958.34 3515.91 958.857 3531.48 959.374L3544.21 959.826 3544.21 895.472 3544.21 831.052 3524.18 831.052 3504.15 831.052ZM3423.38 851.729 3421.96 851.793C3421.12 851.858 3419.89 851.987 3419.18 852.181 3418.47 852.31 3413.37 853.344 3407.87 854.378 3377.05 860.387 3341.26 871.436 3321.61 881.063 3306.94 888.3 3293.57 898.444 3287.69 906.779 3276.51 922.674 3276.64 940.83 3287.95 957.63 3290.79 961.894 3294.86 967.063 3312.57 989.355 3314.38 991.681 3323.55 1003.31 3332.92 1015.2 3351.98 1039.37 3357.99 1046.99 3372.01 1064.69 3377.31 1071.41 3384.42 1080.39 3387.78 1084.66 3391.14 1088.92 3395.4 1094.29 3397.21 1096.61 3409.3 1111.86 3431.33 1139.71 3437.27 1147.27 3444.96 1157.03 3462.09 1178.61 3469.58 1188.04 3478.43 1199.09 3481.92 1205.1 3485.02 1214.53 3488.64 1225.71 3488.77 1227.84 3491.55 1317.91 3492.13 1336.39 3493.17 1369.22 3493.81 1390.93 3494.52 1412.57 3495.56 1446.3 3496.07 1465.88 3497.17 1506.2 3497.43 1511.04 3498.59 1510.59 3499.3 1510.33 3532.32 1486.88 3539.69 1481.45 3541.31 1480.22 3551.06 1473.24 3561.34 1465.88 3571.67 1458.51 3581.56 1451.4 3583.31 1450.11 3585.11 1448.75 3593.26 1442.81 3601.4 1436.93 3609.6 1430.99 3617.1 1425.49 3618.07 1424.65L3619.94 1423.23 3620.46 1395.45C3620.78 1380.14 3621.36 1350.35 3621.75 1329.22 3623.43 1239.47 3623.63 1231.4 3624.59 1226.16 3626.6 1214.73 3629.83 1205.94 3634.55 1198.83 3636.03 1196.57 3643.59 1186.68 3651.35 1176.93 3659.04 1167.11 3667.11 1156.9 3669.24 1154.18 3671.38 1151.47 3678.74 1142.16 3685.66 1133.44 3692.57 1124.72 3699.55 1115.93 3701.16 1113.86 3712.02 1100.04 3727.79 1080.14 3746.78 1056.23 3765.65 1032.52 3773.99 1021.92 3778.44 1016.23 3780.96 1013.07 3784.45 1008.74 3786.2 1006.54 3788.01 1004.34 3791.5 999.951 3793.95 996.785 3796.47 993.554 3801.51 987.158 3805.26 982.57 3815.28 970.229 3823.55 959.18 3826.2 954.722 3829.04 949.747 3832.08 941.993 3832.66 937.987 3836.53 912.4 3818.18 891.272 3778.44 875.441 3770.76 872.405 3752.21 866.137 3744.52 864.005 3724.75 858.513 3694.96 851.729 3690.5 851.729L3688.95 851.729 3689.08 871.5 3689.27 891.336 3702.84 894.05C3710.34 895.536 3718.74 897.41 3721.58 898.185 3724.43 898.961 3729.47 900.318 3732.89 901.222 3769.2 910.785 3793.63 923.191 3793.63 932.043 3793.63 934.498 3790.53 938.375 3785.75 941.864 3772.69 951.491 3746.46 960.279 3706.92 968.291 3680.81 973.589 3658.97 976.303 3627.24 978.37 3621.23 978.758 3612.32 979.404 3607.54 979.727 3595.58 980.567 3536.46 980.955 3524.5 980.309 3494.07 978.564 3487.93 978.177 3477.34 977.337 3457.89 975.721 3428.55 971.974 3415.3 969.325 3413.88 969.066 3410.72 968.485 3408.2 968.097 3392.3 965.448 3363.29 957.823 3349.07 952.59 3336.73 948.067 3326.52 942.381 3321.81 937.406 3316.57 931.913 3317.73 928.554 3326.91 922.092 3328.4 921.058 3329.82 920.219 3330.08 920.219 3330.34 920.219 3331.05 919.831 3331.56 919.379 3334.79 916.665 3356.44 908.33 3372.01 903.807 3385.52 899.865 3419.89 891.789 3423.12 891.789 3423.25 891.789 3423.38 882.743 3423.38 871.759L3423.38 851.729Z" fill-rule="evenodd"/></g></svg>